# xmcd
#
# Track frame offsets:
#	150
#	20645
#	35298
#	54718
#	79010
#	95668
#	106428
#	125715
#	138448
#	158320
#	172995
#	192838
#	220123
#	233300
#	250005
#	262268
#
# Disc length: 3532 seconds
#
# Revision: 2
# Processed by: cddbd v1.5.1PL0 Copyright (c) Steve Scherf et al.
# Submitted via: audiograbber 1.83.01
#
DISCID=d10dca10
DTITLE=Crescent City Gold - The Ultimate Session
DYEAR=1900
DGENRE=New Orleans Jazz
TTITLE0=Allen Toussaint - Hang Tough
TTITLE1=Earl King - Trick Bag
TTITLE2=Allen Toussaint - Red and Lee
TTITLE3=Alvin Tyler - Kaleema
TTITLE4=Allen Toussaint - Mad City Bop
TTITLE5=R. Penniman/A. Collins - Lucille
TTITLE6=Alvin Tyler - Slick Is
TTITLE7=Allen Toussaint - U.S. Dave
TTITLE8=H. Smith/J.Vincent - Don't You Just Know It
TTITLE9=Mac Rebennack - Kick It Raw
TTITLE10=Mac Rebennack - Cold Blooded Woman
TTITLE11=Frank, Toussaint, Rebennack - Smokin' Corner
TTITLE12=Bob Shad - Junco Partner (Worthless Man)
TTITLE13=Allen Toussaint - New York Buzz
TTITLE14=Allen Toussaint - Special Request
TTITLE15=Alvin Tyler - Kaleema (Reprise)
EXTD=
EXTT0=
EXTT1=
EXTT2=
EXTT3=
EXTT4=
EXTT5=
EXTT6=
EXTT7=
EXTT8=
EXTT9=
EXTT10=
EXTT11=
EXTT12=
EXTT13=
EXTT14=
EXTT15=
PLAYORDER=
